<svg xmlns="http://www.w3.org/2000/svg" height="1200" width="1600" version="1.1" xmlns:xlink="http://www.w3.org/1999/xlink" xmlns:svgjs="http://svgjs.com/svgjs"><rect fill="#f3ebe9" width="1600" height="1200"></rect><g><path d="M1326.62 289.98C1326.65 289.95 1326.71 289.95 1326.71 289.98L1333.33 319.04C1334.5 324.2 1334.1 329.62 1332.12 334.55L1308.51 393.88C1307.22 397.09 1304.12 399.21 1300.65 399.21H1282.31L1326.62 289.98Z" fill="#231f20" opacity="1" stroke-width="4" stroke="none"></path><path d="M1290.76 399.21H1236.5C1232.4 399.21 1229.97 395.89 1231.09 391.79L1257.51 293.13C1258.6 289.03 1262.82 285.71 1266.92 285.71H1321.15C1325.24 285.71 1327.68 289.03 1326.56 293.13L1300.14 391.79C1299.07 395.89 1294.86 399.21 1290.76 399.21Z" fill="#ff4f32" opacity="1" stroke-width="4" stroke="none"></path><path d="M1302.4 335.29H1259.12C1256.42 335.29 1254.85 333.11 1255.56 330.42L1261.33 308.89C1262.04 306.2 1264.79 304.02 1267.49 304.02H1310.8C1313.49 304.02 1315.07 306.2 1314.35 308.89L1308.56 330.42C1307.85 333.11 1305.09 335.29 1302.4 335.29Z" fill="#efc8c2" opacity="1" stroke-width="4" stroke="none"></path><path d="M1299.36 296.88H1282.74C1281.71 296.88 1281.1 296.05 1281.36 295.02 1281.68 293.96 1282.62 293.22 1283.71 293.16H1300.34C1301.37 293.16 1301.97 293.99 1301.71 295.02 1301.43 296.08 1300.48 296.83 1299.36 296.88Z" fill="#231f20" opacity="1" stroke-width="4" stroke="none"></path><path d="M1258.12 356.22H1253.5C1250.81 356.22 1249.23 354.04 1249.95 351.34L1250.81 348.16C1251.52 345.47 1254.27 343.29 1256.97 343.29H1261.58C1264.28 343.29 1265.85 345.47 1265.14 348.16L1264.28 351.34C1263.56 354.04 1260.78 356.22 1258.12 356.22Z" fill="#231f20" opacity="1" stroke-width="4" stroke="none"></path><path d="M1296.81 356.22H1292.2C1289.5 356.22 1287.93 354.04 1288.64 351.34L1289.5 348.16C1290.22 345.47 1292.97 343.29 1295.66 343.29H1300.28C1302.97 343.29 1304.55 345.47 1303.83 348.16L1302.97 351.34C1302.26 354.04 1299.48 356.22 1296.81 356.22Z" fill="#231f20" opacity="1" stroke-width="4" stroke="none"></path><path d="M1277.46 356.22H1272.85C1270.15 356.22 1268.58 354.04 1269.29 351.34L1270.15 348.16C1270.87 345.47 1273.62 343.29 1276.32 343.29H1280.93C1283.63 343.29 1285.2 345.47 1284.49 348.16L1283.63 351.34C1282.91 354.04 1280.13 356.22 1277.46 356.22Z" fill="#231f20" opacity="1" stroke-width="4" stroke="none"></path><path d="M1253.5 373.41H1248.89C1246.19 373.41 1244.62 371.24 1245.33 368.54L1246.19 365.36C1246.91 362.67 1249.66 360.49 1252.35 360.49H1256.97C1259.66 360.49 1261.24 362.67 1260.52 365.36L1259.66 368.54C1258.95 371.24 1256.2 373.41 1253.5 373.41Z" fill="#231f20" opacity="1" stroke-width="4" stroke="none"></path><path d="M1292.2 373.41H1287.58C1284.89 373.41 1283.31 371.24 1284.03 368.54L1284.89 365.36C1285.6 362.67 1288.36 360.49 1291.05 360.49H1295.66C1298.36 360.49 1299.93 362.67 1299.22 365.36L1298.36 368.54C1297.64 371.24 1294.89 373.41 1292.2 373.41Z" fill="#231f20" opacity="1" stroke-width="4" stroke="none"></path><path d="M1272.85 373.41H1268.23C1265.54 373.41 1263.96 371.24 1264.68 368.54L1265.54 365.36C1266.26 362.67 1269.01 360.49 1271.7 360.49H1276.32C1279.01 360.49 1280.59 362.67 1279.87 365.36L1279.01 368.54C1278.29 371.24 1275.54 373.41 1272.85 373.41Z" fill="#231f20" opacity="1" stroke-width="4" stroke="none"></path><path d="M1248.89 390.61H1244.27C1241.58 390.61 1240 388.43 1240.72 385.74L1241.58 382.56C1242.29 379.86 1245.05 377.69 1247.74 377.69H1252.35C1255.05 377.69 1256.63 379.86 1255.91 382.56L1255.05 385.74C1254.33 388.43 1251.58 390.61 1248.89 390.61Z" fill="#231f20" opacity="1" stroke-width="4" stroke="none"></path><path d="M1287.58 390.61H1282.97C1280.27 390.61 1278.7 388.43 1279.41 385.74L1280.27 382.56C1280.99 379.86 1283.74 377.69 1286.43 377.69H1291.05C1293.74 377.69 1295.32 379.86 1294.6 382.56L1293.74 385.74C1293.03 388.43 1290.28 390.61 1287.58 390.61Z" fill="#231f20" opacity="1" stroke-width="4" stroke="none"></path><path d="M1268.23 390.61H1263.62C1260.92 390.61 1259.35 388.43 1260.06 385.74L1260.92 382.56C1261.64 379.86 1264.39 377.69 1267.09 377.69H1271.7C1274.4 377.69 1275.97 379.86 1275.26 382.56L1274.4 385.74C1273.68 388.43 1270.93 390.61 1268.23 390.61Z" fill="#231f20" opacity="1" stroke-width="4" stroke="none"></path></g><g><path d="M883.28 797.48H1100.56C1115.69 797.48 1127.92 809.75 1127.92 824.84V1042.11C1127.92 1057.25 1115.64 1069.47 1100.56 1069.47H883.28C868.15 1069.47 855.92 1057.2 855.92 1042.11V824.89C855.87 809.75 868.15 797.48 883.28 797.48Z" fill="#cecece" opacity="1" stroke-width="4" stroke="none"></path></g><g><path d="M1121.55 495.75H1404.45C1426.85 495.75 1444.95 513.85 1444.95 536.25V804.75C1444.95 827.15 1426.85 845.25 1404.45 845.25H1121.55C1099.15 845.25 1081.05 827.15 1081.05 804.75V536.25C1080.95 513.85 1099.15 495.75 1121.55 495.75Z" fill="#ffffff" opacity="1" stroke-width="4" stroke="none"></path><path d="M1231.45 809.75C1236.7 809.75 1240.95 805.5 1240.95 800.25 1240.95 795 1236.7 790.75 1231.45 790.75 1226.2 790.75 1221.95 795 1221.95 800.25 1221.95 805.5 1226.2 809.75 1231.45 809.75Z" fill="#9e76dd" opacity="1" stroke-width="4" stroke="none"></path><path d="M1294.45 809.75C1299.7 809.75 1303.95 805.5 1303.95 800.25 1303.95 795 1299.7 790.75 1294.45 790.75 1289.2 790.75 1284.95 795 1284.95 800.25 1284.95 805.5 1289.2 809.75 1294.45 809.75Z" fill="#9e76dd" opacity="1" stroke-width="4" stroke="none"></path><path d="M1263.45 809.75C1268.7 809.75 1272.95 805.5 1272.95 800.25 1272.95 795 1268.7 790.75 1263.45 790.75 1258.2 790.75 1253.95 795 1253.95 800.25 1253.95 805.5 1258.2 809.75 1263.45 809.75Z" fill="#231f20" opacity="1" stroke-width="4" stroke="none"></path></g><g><path d="M1225.38 674.39H1165.89V705H1225.38V674.39Z" fill="#231f20" opacity="1" stroke-width="4" stroke="none"></path><path d="M1362.44 674.3H1302.94V704.91H1362.44V674.3Z" fill="#231f20" opacity="1" stroke-width="4" stroke="none"></path><path d="M1156.45 705C1154.15 705 1152.27 703.13 1152.27 700.83V699.28C1152.27 696.98 1154.15 695.11 1156.45 695.11H1163.51C1164.05 695.11 1164.47 695.55 1164.47 696.06V704.03C1164.47 704.56 1164.03 704.99 1163.51 704.99L1156.45 705Z" fill="#3c2c5b" opacity="1" stroke-width="4" stroke="none"></path><path d="M1362.6 704.89C1362.07 704.89 1361.65 704.45 1361.65 703.94V695.97C1361.65 695.44 1362.09 695.02 1362.6 695.02H1369.67C1371.97 695.02 1373.84 696.89 1373.84 699.19V700.74C1373.84 703.04 1371.97 704.91 1369.67 704.91H1362.6V704.89Z" fill="#3c2c5b" opacity="1" stroke-width="4" stroke="none"></path><path d="M1192.07 720.11C1202.35 720.11 1210.68 711.77 1210.68 701.49 1210.68 691.21 1202.35 682.87 1192.07 682.87 1181.78 682.87 1173.45 691.21 1173.45 701.49 1173.45 711.77 1181.78 720.11 1192.07 720.11Z" fill="#ffc930" opacity="1" stroke-width="4" stroke="none"></path><path d="M1192.07 707.78C1188.59 707.78 1185.77 704.95 1185.77 701.49 1185.77 698.03 1188.61 695.2 1192.07 695.2 1195.54 695.2 1198.36 698.03 1198.36 701.49 1198.36 704.95 1195.54 707.78 1192.07 707.78Z" fill="#3c2c5b" opacity="1" stroke-width="4" stroke="none"></path><path d="M1332.67 720.11C1342.95 720.11 1351.29 711.77 1351.29 701.49 1351.29 691.21 1342.95 682.87 1332.67 682.87 1322.39 682.87 1314.05 691.21 1314.05 701.49 1314.05 711.77 1322.39 720.11 1332.67 720.11Z" fill="#ffc930" opacity="1" stroke-width="4" stroke="none"></path><path d="M1332.67 707.78C1329.19 707.78 1326.38 704.95 1326.38 701.49 1326.38 698.03 1329.21 695.2 1332.67 695.2 1336.13 695.2 1338.96 698.03 1338.96 701.49 1338.96 704.95 1336.15 707.78 1332.67 707.78Z" fill="#3c2c5b" opacity="1" stroke-width="4" stroke="none"></path><path d="M1366.01 688.93C1369.81 688.93 1372.89 685.85 1372.89 682.05 1372.89 678.25 1369.81 675.17 1366.01 675.17 1362.21 675.17 1359.13 678.25 1359.13 682.05 1359.13 685.85 1362.21 688.93 1366.01 688.93Z" fill="#ff4f32" opacity="1" stroke-width="4" stroke="none"></path><path d="M1356.99 698.35V698.31C1355.56 687.31 1346.86 678.61 1335.85 677.17 1334.79 677.02 1333.72 676.97 1332.65 676.97 1320.4 676.97 1309.95 686.15 1308.37 698.33V698.36H1216.39V698.33C1214.95 687.33 1206.25 678.62 1195.25 677.19 1194.18 677.04 1193.11 676.99 1192.05 676.99 1179.79 676.99 1169.35 686.17 1167.76 698.35V698.38H1157.87V683.22C1157.87 673.88 1164.53 665.82 1173.69 664.04L1212.39 656.51 1225.47 637.93C1229.59 632.08 1236.33 628.58 1243.48 628.58H1317.03C1323.27 628.58 1329.25 631.25 1333.43 635.91L1354.95 659.9C1362.88 668.73 1367.24 680.11 1367.24 691.98V698.38H1356.99V698.35 698.35Z" fill="#ffc930" opacity="1" stroke-width="4" stroke="none"></path><path d="M1216.35 704.97C1216.51 703.83 1216.59 702.65 1216.59 701.49 1216.59 700.44 1216.51 699.38 1216.39 698.33V698.29H1308.37V698.33C1308.09 700.5 1308.09 702.69 1308.39 704.86V704.89L1216.33 705.02 1216.35 704.97Z" fill="#3c2c5b" opacity="1" stroke-width="4" stroke="none"></path><path d="M1157.87 698.2H1167.76V698.23C1167.47 700.46 1167.49 702.72 1167.82 704.95V705H1157.87V698.2Z" fill="#3c2c5b" opacity="1" stroke-width="4" stroke="none"></path><path d="M1356.97 704.86C1357.12 703.75 1357.19 702.61 1357.19 701.49 1357.19 700.44 1357.12 699.38 1356.99 698.33V698.29H1367.2V704.89L1356.97 704.91V704.86 704.86Z" fill="#3c2c5b" opacity="1" stroke-width="4" stroke="none"></path><path d="M1223.84 662.32C1221.81 662.32 1220.16 660.67 1220.16 658.64 1220.16 657.89 1220.4 657.15 1220.82 656.53L1232.1 640.49C1234.82 636.62 1239.25 634.32 1243.98 634.32H1278.11V658.64C1278.11 660.67 1276.45 662.32 1274.43 662.32H1223.84Z" fill="#9e76dd" opacity="1" stroke-width="4" stroke="none"></path><path d="M1220.86 660.78C1219.94 659.51 1219.94 657.8 1220.84 656.53L1232.11 640.49C1234.84 636.62 1239.27 634.32 1244 634.32H1278.13V638.61H1244C1239.31 638.61 1234.89 640.91 1232.19 644.74L1220.89 660.8 1220.86 660.78Z" fill="#000000" opacity="0.2" stroke-width="4" stroke="none"></path><path d="M1290.78 662.32C1288.76 662.32 1287.1 660.67 1287.1 658.64V634.32H1308.9C1313.19 634.32 1317.24 636.61 1319.44 640.28L1329.56 657.15C1329.88 657.69 1330.04 658.3 1330.04 658.9 1330.04 660.78 1328.51 662.31 1326.64 662.31L1290.78 662.32Z" fill="#9e76dd" opacity="1" stroke-width="4" stroke="none"></path><path d="M1319.37 644.55C1317.18 640.89 1313.17 638.63 1308.9 638.63H1287.1V634.32H1308.9C1313.19 634.32 1317.24 636.61 1319.44 640.28L1329.56 657.15C1330.3 658.37 1330.19 659.91 1329.32 661.02L1329.29 661.05 1319.37 644.55Z" fill="#000000" opacity="0.2" stroke-width="4" stroke="none"></path><path d="M1282.71 634.36V698.31" stroke="#a3883c" stroke-width="4" stroke-linecap="round" stroke-linejoin="round" opacity="1" fill="none"></path><path d="M1278.09 634.36H1287.14" stroke="#a3883c" stroke-width="4" stroke-linecap="round" stroke-linejoin="round" opacity="1" fill="none"></path><path d="M1188.42 673.22C1187.08 673.22 1185.98 672.11 1185.98 670.77 1185.98 669.43 1187.08 668.32 1188.42 668.32H1192.86C1194.2 668.32 1195.3 669.43 1195.3 670.77 1195.3 672.11 1194.2 673.22 1192.86 673.22H1188.42Z" fill="#231f20" opacity="0.2" stroke-width="4" stroke="none"></path><path d="M1271.13 671.38C1269.85 671.38 1268.8 670.33 1268.8 669.04V668.82C1268.8 667.53 1269.85 666.48 1271.13 666.48H1275.79C1277.08 666.48 1278.13 667.53 1278.13 668.82V669.04C1278.13 670.33 1277.08 671.38 1275.79 671.38H1271.13Z" fill="#231f20" opacity="1" stroke-width="4" stroke="none"></path><path d="M1232.35 666.28C1229.34 666.28 1226.76 664.66 1225.75 662.16 1224.68 659.51 1225.57 656.44 1227.98 654.34 1228.38 653.99 1228.88 653.81 1229.41 653.81 1230.04 653.81 1230.64 654.08 1231.05 654.56 1231.21 654.74 1231.34 654.95 1231.43 655.19L1234.67 663.3C1234.89 663.83 1234.87 664.44 1234.65 664.97 1234.43 665.51 1233.99 665.93 1233.46 666.13 1233.24 666.22 1233 666.28 1232.74 666.28 1232.61 666.28 1232.48 666.28 1232.35 666.28Z" fill="#3c2c5b" opacity="1" stroke-width="4" stroke="none"></path><path d="M1232.35 666.28C1229.34 666.28 1226.76 664.66 1225.75 662.16 1225.4 661.28 1225.25 660.32 1225.33 659.36V659.29C1225.33 659.29 1225.46 659.42 1225.47 659.44 1226.98 660.89 1229.02 661.7 1231.23 661.7 1232.1 661.7 1232.98 661.57 1233.86 661.33H1233.9L1234.69 663.3C1234.78 663.52 1234.84 663.76 1234.84 664.02 1234.86 664.61 1234.65 665.16 1234.27 665.58 1233.88 666 1233.33 666.26 1232.76 666.28 1232.61 666.28 1232.48 666.28 1232.35 666.28Z" fill="#000000" opacity="0.2" stroke-width="4" stroke="none"></path><path d="M1156.15 698.31H1167.73" stroke="#a3883c" stroke-width="4" stroke-linecap="round" stroke-linejoin="round" opacity="1" fill="none"></path><path d="M1216.44 698.31H1308.31" stroke="#a3883c" stroke-width="4" stroke-linecap="round" stroke-linejoin="round" opacity="1" fill="none"></path><path d="M1357.05 698.31H1368.6" stroke="#a3883c" stroke-width="4" stroke-linecap="round" stroke-linejoin="round" opacity="1" fill="none"></path><path d="M1332.97 652.46H1340.1" stroke="#a3883c" stroke-width="4" stroke-linecap="round" stroke-linejoin="round" opacity="1" fill="none"></path><path d="M1335.28 655.55H1342.4" stroke="#a3883c" stroke-width="4" stroke-linecap="round" stroke-linejoin="round" opacity="1" fill="none"></path><path d="M1188.42 671.38C1187.08 671.38 1185.98 670.27 1185.98 668.93 1185.98 667.59 1187.08 666.48 1188.42 666.48H1192.86C1194.2 666.48 1195.3 667.59 1195.3 668.93 1195.3 670.27 1194.2 671.38 1192.86 671.38H1188.42Z" fill="#ff4f32" opacity="1" stroke-width="4" stroke="none"></path></g><g><path d="M203.86 486.97H406.61C423.98 486.97 438 501.06 438 518.36V721.11C438 738.48 423.92 752.5 406.61 752.5H203.86C186.5 752.5 172.47 738.42 172.47 721.11V518.36C172.47 501.06 186.56 486.97 203.86 486.97Z" fill="#ffffff" opacity="1" stroke-width="4" stroke="none"></path></g><g><path d="M230.27 624.25H380.27" stroke="#3c2c5b" stroke-width="4" stroke-linecap="round" stroke-linejoin="round" opacity="1" fill="none"></path><path d="M296.62 599.33H284.39C277.57 599.07 277.52 603 277.33 608.02V670.55C277.39 673.1 277.8 675.39 281.09 675.46H288.82" stroke="#3c2c5b" stroke-width="4" stroke-linecap="round" stroke-linejoin="round" opacity="1" fill="none"></path><path d="M221.4 570.49V620.02" stroke="#3c2c5b" stroke-width="4" stroke-linecap="round" stroke-linejoin="round" opacity="1" fill="none"></path><path d="M296.4 684.51C301.3 684.51 305.27 680.54 305.27 675.64 305.27 670.74 301.3 666.76 296.4 666.76 291.5 666.76 287.53 670.74 287.53 675.64 287.53 680.54 291.5 684.51 296.4 684.51Z" fill="#3c2c5b" opacity="1" stroke-width="4" stroke="none"></path><path d="M221.4 633.13C226.3 633.13 230.27 629.15 230.27 624.25 230.27 619.35 226.3 615.38 221.4 615.38 216.5 615.38 212.53 619.35 212.53 624.25 212.53 629.15 216.5 633.13 221.4 633.13Z" fill="#3c2c5b" opacity="1" stroke-width="4" stroke="none"></path><path d="M221.4 628.09C223.52 628.09 225.24 626.37 225.24 624.25 225.24 622.13 223.52 620.41 221.4 620.41 219.28 620.41 217.56 622.13 217.56 624.25 217.56 626.37 219.28 628.09 221.4 628.09Z" fill="#ffc930" opacity="1" stroke-width="4" stroke="none"></path><path d="M277.33 633.13C282.23 633.13 286.2 629.15 286.2 624.25 286.2 619.35 282.23 615.38 277.33 615.38 272.43 615.38 268.46 619.35 268.46 624.25 268.46 629.15 272.43 633.13 277.33 633.13Z" fill="#3c2c5b" opacity="1" stroke-width="4" stroke="none"></path><path d="M304.84 608.46C309.74 608.46 313.71 604.49 313.71 599.59 313.71 594.68 309.74 590.71 304.84 590.71 299.94 590.71 295.96 594.68 295.96 599.59 295.96 604.49 299.94 608.46 304.84 608.46Z" fill="#3c2c5b" opacity="1" stroke-width="4" stroke="none"></path><path d="M333.17 633.13C338.07 633.13 342.05 629.15 342.05 624.25 342.05 619.35 338.07 615.38 333.17 615.38 328.27 615.38 324.3 619.35 324.3 624.25 324.3 629.15 328.27 633.13 333.17 633.13Z" fill="#3c2c5b" opacity="1" stroke-width="4" stroke="none"></path><path d="M389.19 633.13C394.09 633.13 398.06 629.15 398.06 624.25 398.06 619.35 394.09 615.38 389.19 615.38 384.29 615.38 380.32 619.35 380.32 624.25 380.32 629.15 384.29 633.13 389.19 633.13Z" fill="#3c2c5b" opacity="1" stroke-width="4" stroke="none"></path><path d="M221.4 572.83C226.3 572.83 230.27 568.85 230.27 563.95 230.27 559.05 226.3 555.08 221.4 555.08 216.5 555.08 212.53 559.05 212.53 563.95 212.53 568.85 216.5 572.83 221.4 572.83Z" fill="#3c2c5b" opacity="1" stroke-width="4" stroke="none"></path><path d="M221.4 567.62C223.52 567.62 225.24 565.9 225.24 563.78 225.24 561.65 223.52 559.94 221.4 559.94 219.28 559.94 217.56 561.65 217.56 563.78 217.56 565.9 219.28 567.62 221.4 567.62Z" fill="#ffc930" opacity="1" stroke-width="4" stroke="none"></path><path d="M277.46 628.09C279.59 628.09 281.3 626.37 281.3 624.25 281.3 622.13 279.59 620.41 277.46 620.41 275.34 620.41 273.62 622.13 273.62 624.25 273.62 626.37 275.34 628.09 277.46 628.09Z" fill="#ff4f32" opacity="1" stroke-width="4" stroke="none"></path><path d="M333.17 628.09C335.29 628.09 337.01 626.37 337.01 624.25 337.01 622.13 335.29 620.41 333.17 620.41 331.05 620.41 329.33 622.13 329.33 624.25 329.33 626.37 331.05 628.09 333.17 628.09Z" fill="#ffc930" opacity="1" stroke-width="4" stroke="none"></path><path d="M389.19 628.09C391.31 628.09 393.03 626.37 393.03 624.25 393.03 622.13 391.31 620.41 389.19 620.41 387.07 620.41 385.35 622.13 385.35 624.25 385.35 626.37 387.07 628.09 389.19 628.09Z" fill="#ffc930" opacity="1" stroke-width="4" stroke="none"></path><path d="M304.64 603.09C306.77 603.09 308.48 601.37 308.48 599.25 308.48 597.12 306.77 595.41 304.64 595.41 302.52 595.41 300.8 597.12 300.8 599.25 300.8 601.37 302.52 603.09 304.64 603.09Z" fill="#ff4f32" opacity="1" stroke-width="4" stroke="none"></path><path d="M296.76 679.16C298.89 679.16 300.6 677.44 300.6 675.32 300.6 673.2 298.89 671.48 296.76 671.48 294.64 671.48 292.92 673.2 292.92 675.32 292.92 677.44 294.64 679.16 296.76 679.16Z" fill="#ff4f32" opacity="1" stroke-width="4" stroke="none"></path></g><g><path d="M354.42 394C397.1 394 431.7 359.4 431.7 316.72 431.7 274.04 397.1 239.44 354.42 239.44 311.74 239.44 277.14 274.04 277.14 316.72 277.14 359.4 311.74 394 354.42 394Z" fill="#ff4f32" opacity="1" stroke-width="4" stroke="none"></path><path d="M366.1 280.2V320.51C366.1 326.98 360.89 332.19 354.42 332.19 347.95 332.19 342.74 326.98 342.74 320.51V280.2C342.74 273.73 347.95 268.52 354.42 268.52 360.89 268.45 366.1 273.73 366.1 280.2Z" fill="#ffffff" opacity="1" stroke-width="4" stroke="none"></path><path d="M354.42 364.92C360.87 364.92 366.1 359.69 366.1 353.24 366.1 346.79 360.87 341.56 354.42 341.56 347.97 341.56 342.74 346.79 342.74 353.24 342.74 359.69 347.97 364.92 354.42 364.92Z" fill="#ffffff" opacity="1" stroke-width="4" stroke="none"></path></g><g><path d="M1039.89 926.37C1039.89 959.11 1004.98 996.92 991.14 996.92 977.3 996.92 942.41 959.11 942.41 926.37 942.89 899.45 965.11 878.02 992.03 878.5 1018.26 878.98 1039.42 900.13 1039.89 926.37Z" fill="#9e76dd" opacity="1" stroke-width="4" stroke="none"></path><path d="M991.14 941.65C999.58 941.65 1006.42 934.81 1006.42 926.37 1006.42 917.93 999.58 911.09 991.14 911.09 982.7 911.09 975.86 917.93 975.86 926.37 975.86 934.81 982.7 941.65 991.14 941.65Z" fill="#cbcbcb" opacity="1" stroke-width="4" stroke="none"></path></g><g><path d="M682.45 154.15H1100.15C1129.25 154.15 1152.75 177.75 1152.75 206.75V624.45C1152.75 653.55 1129.15 677.05 1100.15 677.05H682.45C653.35 677.05 629.85 653.45 629.85 624.45V206.85C629.75 177.75 653.35 154.15 682.45 154.15Z" fill="#cecece" opacity="1" stroke-width="4" stroke="none"></path></g><g><path d="M971.67 278.9H809.61L883.75 414.68H1057.08L971.67 278.9Z" fill="#9e76dd" opacity="1" stroke-width="4" stroke="none"></path><path d="M943.64 278.9H902.4L921.3 301.43 943.64 278.9Z" fill="#4c386d" opacity="0.3" stroke-width="4" stroke="none"></path><path d="M1057.08 414.68H895.02V561.1H1057.08V414.68Z" fill="#231f20" opacity="1" stroke-width="4" stroke="none"></path><path d="M1002.01 450.35H950.08V561.1H1002.01V450.35Z" fill="#9e76dd" opacity="1" stroke-width="4" stroke="none"></path><path d="M950.08 450.35H1002.01V460.3L950.08 482.7V450.35Z" fill="#4c386d" opacity="0.3" stroke-width="4" stroke="none"></path><path d="M809.61 278.9L724.2 414.68V561.1H895.08L895.33 414.81 809.61 278.9Z" fill="#3c2c5b" opacity="1" stroke-width="4" stroke="none"></path><path d="M759.24 507.73L859.98 515.42V533.63L759.24 520.43V507.73Z" fill="#000000" opacity="0.3" stroke-width="4" stroke="none"></path><path d="M859.98 450.35H759.24V515.42H859.98V450.35Z" fill="#cecece" opacity="1" stroke-width="4" stroke="none"></path><path d="M809.67 396.6C818.83 396.6 826.25 389.18 826.25 380.02 826.25 370.86 818.83 363.44 809.67 363.44 800.51 363.44 793.09 370.86 793.09 380.02 793.09 389.18 800.51 396.6 809.67 396.6Z" fill="#231f20" opacity="1" stroke-width="4" stroke="none"></path><path d="M799.35 385.46C799.35 376.33 806.79 368.88 815.93 368.88 818.62 368.88 821.12 369.51 823.37 370.63 820.37 366.25 815.36 363.44 809.67 363.44 800.53 363.44 793.09 370.88 793.09 380.02 793.09 386.53 796.84 392.09 802.22 394.85 800.41 392.16 799.35 388.97 799.35 385.46Z" fill="#000000" opacity="0.3" stroke-width="4" stroke="none"></path><path d="M809.73 450.35V515.42" stroke="#000000" stroke-width="4" stroke-linecap="round" stroke-linejoin="round" opacity="1" fill="none"></path><path d="M860.1 482.89H759.36" stroke="#000000" stroke-width="4" stroke-linecap="round" stroke-linejoin="round" opacity="1" fill="none"></path><path d="M931.43 278.9L1016.53 414.68" stroke="#231f20" stroke-width="4" stroke-linecap="round" stroke-linejoin="round" opacity="1" fill="none"></path><path d="M890.95 278.9L976.05 414.68" stroke="#231f20" stroke-width="4" stroke-linecap="round" stroke-linejoin="round" opacity="1" fill="none"></path><path d="M850.4 278.9L935.5 414.68" stroke="#231f20" stroke-width="4" stroke-linecap="round" stroke-linejoin="round" opacity="1" fill="none"></path><path d="M921.3 254.5H886.95V301.43H921.3V254.5Z" fill="#3c2c5b" opacity="1" stroke-width="4" stroke="none"></path><path d="M886.95 301.43L887.2 254.5H872.8V278.9L886.95 301.43Z" fill="#231f20" opacity="1" stroke-width="4" stroke="none"></path><path d="M963.22 500.41V511.04" stroke="#4c386d" stroke-width="4" stroke-linecap="round" stroke-linejoin="round" opacity="1" fill="none"></path><path d="M895.08 414.68H1057.08" stroke="#4c386d" stroke-width="4" stroke-linecap="round" stroke-linejoin="round" opacity="1" fill="none"></path><path d="M886.95 301.43H921.3" stroke="#000000" stroke-width="4" stroke-linecap="round" stroke-linejoin="round" opacity="1" fill="none"></path><path d="M945.58 450.35H1006.46" stroke="#4c386d" stroke-width="4" stroke-linecap="round" stroke-linejoin="round" opacity="1" fill="none"></path></g><g><path d="M1146.39 198.8L1160.57 184.62 1185.69 209.74C1189.61 213.66 1189.61 220 1185.69 223.92 1181.77 227.84 1175.43 227.84 1171.51 223.92L1146.39 198.8Z" fill="#ffc930" stroke-linejoin="round" opacity="1" stroke-width="4" stroke="none"></path><path d="M1185.69 216.17C1181.77 220.09 1175.43 220.09 1171.51 216.17L1150.29 194.94 1146.39 198.81 1171.51 223.93C1175.43 227.85 1181.77 227.85 1185.69 223.93 1188.67 220.95 1189.37 216.6 1187.84 212.94 1187.36 214.12 1186.63 215.2 1185.69 216.17Z" fill="#000000" opacity="0.2" stroke-width="4" stroke="none"></path><path d="M1145.62 177.44L1139.18 183.88 1150.25 194.95 1156.69 188.51 1145.62 177.44Z" fill="#ffc930" opacity="1" stroke-width="4" stroke="none"></path><path d="M1151.04 192.92C1146.9 189.22 1145.5 183.63 1147.17 178.98L1145.61 177.42 1139.17 183.87 1150.23 194.94 1151.68 193.49C1151.5 193.3 1151.25 193.11 1151.04 192.92Z" fill="#000000" opacity="0.2" stroke-width="4" stroke="none"></path><path d="M1142.42 120.12C1158.37 135.54 1159.93 160.58 1146.02 177.85 1145.24 178.82 1144.4 179.76 1143.52 180.67 1142.31 181.93 1140.99 183.14 1139.62 184.24 1121.25 199.12 1094.28 196.25 1079.4 177.88 1064.51 159.5 1067.39 132.53 1085.76 117.65 1102.58 104.06 1126.86 105.13 1142.42 120.12Z" fill="#ffc930" opacity="1" stroke-width="4" stroke="none"></path><path d="M1112.68 181.02C1129.28 181.02 1142.74 167.56 1142.74 150.96 1142.74 134.36 1129.28 120.9 1112.68 120.9 1096.08 120.9 1082.62 134.36 1082.62 150.96 1082.62 167.56 1096.08 181.02 1112.68 181.02Z" fill="#eeeeee" opacity="1" stroke-width="4" stroke="none"></path><path d="M1160.56 184.59C1164.37 188.59 1164.21 194.93 1160.21 198.75 1156.34 202.43 1150.24 202.46 1146.37 198.78L1160.56 184.59Z" fill="#ffc930" stroke-linejoin="round" opacity="1" stroke-width="4" stroke="none"></path><path d="M1127.1 155.61C1129.63 155.61 1131.67 153.56 1131.67 151.04 1131.67 148.52 1129.63 146.47 1127.1 146.47 1124.58 146.47 1122.54 148.52 1122.54 151.04 1122.54 153.56 1124.58 155.61 1127.1 155.61Z" fill="#3c2c5b" opacity="1" stroke-width="4" stroke="none"></path><path d="M1112.84 155.61C1115.36 155.61 1117.41 153.56 1117.41 151.04 1117.41 148.52 1115.36 146.47 1112.84 146.47 1110.32 146.47 1108.27 148.52 1108.27 151.04 1108.27 153.56 1110.32 155.61 1112.84 155.61Z" fill="#3c2c5b" opacity="1" stroke-width="4" stroke="none"></path><path d="M1102.62 153.16C1103.79 150.93 1102.93 148.16 1100.7 147 1098.46 145.82 1095.7 146.69 1094.53 148.92 1093.36 151.15 1094.22 153.92 1096.46 155.08 1098.69 156.25 1101.45 155.39 1102.62 153.16Z" fill="#3c2c5b" opacity="1" stroke-width="4" stroke="none"></path><path d="M1160.92 212.9L1174.81 198.99" stroke="#000000" stroke-width="4" stroke-linecap="round" stroke-linejoin="round" opacity="1" fill="none"></path><path d="M1165.3 217.28L1179.22 203.37" stroke="#000000" stroke-width="4" stroke-linecap="round" stroke-linejoin="round" opacity="1" fill="none"></path><path d="M1169.68 221.66L1183.6 207.75" stroke="#000000" stroke-width="4" stroke-linecap="round" stroke-linejoin="round" opacity="1" fill="none"></path><path d="M1146.07 177.88C1145.29 178.84 1144.46 179.78 1143.57 180.7 1142.33 181.96 1141.05 183.17 1139.68 184.27" stroke="#000000" stroke-width="4" stroke-linecap="round" stroke-linejoin="round" opacity="1" fill="none"></path></g><g><path d="M643.14 1098.8C643.05 1098.8 643.05 1098.8 643.14 1098.8 638.37 1089.09 633.78 1076.79 630.57 1063.88 628.75 1056.34 627.54 1046.72 626.24 1038.14 626.24 1038.06 626.15 1038.14 626.24 1038.14L711.33 1020.73C711.42 1020.73 711.42 1020.73 711.42 1020.82 714.02 1048.2 730.65 1058.94 745.3 1068.39 759.51 1075.84 764.18 1090.39 762.97 1098.71 762.97 1098.71 762.97 1098.8 762.88 1098.8 758.9 1098.8 645.82 1098.8 643.14 1098.8Z" fill="#a56250" opacity="1" stroke-width="4" stroke="none"></path><path d="M638.02 1087.53C635.16 1080.78 632.57 1072.2 630.57 1064.05 630.57 1063.97 630.57 1063.97 630.66 1063.97L700.06 1074.62C700.15 1074.62 700.15 1074.54 700.15 1074.54L692.7 1056.25C688.8 1046.9 696.17 1035.89 706.3 1036.15 706.3 1036.15 714.02 1036.15 714.71 1036.15 714.71 1036.15 714.79 1036.15 714.79 1036.24 720.95 1053.14 734.03 1061.37 745.47 1068.73 746.42 1069.25 747.2 1069.86 747.98 1070.38 754.74 1074.19 760.63 1083.03 761.67 1087.62 761.67 1087.71 761.67 1087.71 761.59 1087.71 758.47 1087.79 705.96 1091.61 670.43 1091.61 652.15 1091.43 638.72 1087.79 638.02 1087.53Z" fill="#3c2c5b" opacity="1" stroke-width="4" stroke="none"></path><path d="M642.87 1098.71C641.22 1095.33 639.66 1091.61 638.1 1087.62 638.1 1087.53 638.1 1087.53 638.19 1087.53H761.58C761.58 1087.53 761.66 1087.53 761.66 1087.62 762.96 1090.65 763.14 1097.33 762.88 1098.8 762.88 1098.8 762.88 1098.89 762.79 1098.89 758.8 1098.8 645.64 1098.8 642.87 1098.71 642.87 1098.8 642.87 1098.8 642.87 1098.71Z" fill="#3c2c5b" opacity="1" stroke-width="4" stroke="none"></path><path d="M684.81 1063.79C682.73 1054.95 681.09 1045.77 679.96 1036.93 679.96 1036.85 679.96 1036.85 680.05 1036.85L751.71 1018.3 765.05 1017C765.14 1017 765.14 1017 765.14 1017.09 765.4 1024.02 766.61 1030.09 768.69 1035.98 768.69 1035.98 768.69 1035.98 768.69 1036.07L758.38 1085.11C758.38 1085.19 758.29 1085.19 758.29 1085.19L684.81 1063.79C684.81 1063.88 684.81 1063.88 684.81 1063.79Z" fill="#a56250" opacity="1" stroke-width="4" stroke="none"></path><path d="M490.98 939.97V939.89C491.93 938.41 513.51 907.83 540.2 874.99 585.6 818.75 610.73 798.56 623.81 791.54 657.87 772.39 700.32 785.65 716.7 822.74 733.6 859.56 716.53 952.28 711.5 1005.13 711.07 1010.42 711.07 1015.62 711.5 1020.82 711.5 1020.82 711.5 1020.9 711.42 1020.9L626.67 1040.74C626.59 1040.74 626.59 1040.74 626.59 1040.66 624.25 1024.8 623.03 1008.68 622.95 992.74 622.95 992.65 622.86 992.65 622.77 992.74 614.54 1015.44 599.21 1040.66 584.82 1056.69 584.82 1056.69 584.74 1056.69 584.65 1056.69 581.53 1052.53 493.06 942.48 490.98 939.97Z" fill="#d81f00" opacity="1" stroke-width="4" stroke="none"></path><path d="M626.66 1040.48C624.33 1024.63 623.03 1008.51 623.03 992.39 623.03 992.31 622.85 992.31 622.85 992.39 621.81 995.08 620.95 997.25 620.77 995.34 621.64 982.52 646.25 896.73 672.76 898.12 718.86 900.11 713.23 978.36 711.75 1005.05 711.32 1010.33 711.32 1015.53 711.75 1020.73 711.75 1020.73 711.75 1020.82 711.67 1020.82L678.83 1028.53 626.75 1040.57C626.66 1040.57 626.66 1040.57 626.66 1040.48Z" fill="#231f20" opacity="0.3" stroke-width="4" stroke="none"></path><path d="M521.31 1098.8C478.68 1100.01 439.34 1071.76 424.52 1032.86 421.23 1024.11 425.48 999.41 425.65 998.55 425.39 997.94 417.94 981.65 419.24 969.87 420.8 955.66 424 940.93 428.68 925.85 428.68 925.85 428.68 925.76 428.77 925.76L485.18 922.99 544.7 939.89H544.79C546.96 936.94 632.57 815.63 677.62 791.54 711.68 772.39 754.13 785.65 770.51 822.74 789.14 863.72 766.96 960.85 765.05 1016.92 765.05 1016.92 765.05 1017 764.96 1017 763.66 1017.35 740.36 1022.72 718.52 1027.83 699.46 1032.25 681.35 1036.5 679.96 1036.85 679.88 1036.85 679.88 1036.85 679.88 1036.76 677.8 1022.2 676.76 1007.21 676.76 992.57 676.76 992.48 676.67 992.48 676.58 992.57 647.64 1065.18 602.33 1104.34 521.31 1098.8Z" fill="#ff4f32" opacity="1" stroke-width="4" stroke="none"></path><path d="M692 1087.45C689.22 1080.08 686.71 1072.11 684.89 1063.97 684.89 1063.88 684.89 1063.88 684.98 1063.88L753.95 1074.54C754.04 1074.54 754.04 1074.45 754.04 1074.45L746.59 1056.17C742.69 1046.81 750.05 1035.81 760.19 1036.07 760.19 1036.07 767.99 1036.07 768.68 1036.07 768.68 1036.07 768.77 1036.07 768.77 1036.15 774.92 1053.05 791.12 1061.28 802.65 1068.65 803.6 1069.16 804.38 1069.77 805.16 1070.29 811.92 1074.1 817.72 1083.03 818.68 1087.53 818.68 1087.62 818.68 1087.62 818.59 1087.62 816.51 1087.71 798.32 1092.21 762.79 1092.21 739.65 1092.21 693.73 1087.79 692 1087.45 692 1087.53 692 1087.53 692 1087.45Z" fill="#3c2c5b" opacity="1" stroke-width="4" stroke="none"></path><path d="M696.77 1098.71C695.13 1095.33 693.65 1091.61 692.09 1087.62 692.09 1087.53 692.09 1087.53 692.18 1087.53L818.6 1087.62C818.6 1087.62 818.69 1087.62 818.69 1087.71 819.99 1090.91 820.16 1097.59 819.81 1098.8 819.81 1098.8 819.81 1098.89 819.73 1098.89 815.83 1098.8 699.54 1098.8 696.77 1098.71 696.77 1098.8 696.77 1098.8 696.77 1098.71Z" fill="#3c2c5b" opacity="1" stroke-width="4" stroke="none"></path><path d="M676.75 992.05C696.76 942.66 721.11 854.1 721.11 854.1" stroke="#381b16" stroke-width="4" stroke-linecap="round" stroke-linejoin="round" opacity="1" fill="none"></path><path d="M679.95 1036.76C677.87 1022.03 676.83 1006.86 676.75 992.05 677.09 991.09 697.89 942.92 720.94 854.19 720.94 854.1 721.02 854.1 721.11 854.19 730.38 862.51 724.58 894.14 722.5 912.5 719.64 935.38 715.83 966.83 718.6 1027.75 718.6 1027.75 718.6 1027.83 718.51 1027.83 716.78 1028.27 682.03 1036.24 679.95 1036.76 679.95 1036.85 679.95 1036.76 679.95 1036.76Z" fill="#381b16" opacity="0.3" stroke-width="4" stroke="none"></path><path d="M690.61 880.53C690.61 880.44 690.61 880.44 690.61 880.53 718.69 870.39 737.05 864.67 764 864.5 771.54 864.5 777.78 865.11 780.9 866.15 787.83 868.49 787.83 875.68 783.59 878.37 783.5 878.37 783.5 878.45 783.59 878.45 786.7 881.22 790 888.07 782.63 892.23 782.63 892.23 782.55 892.32 782.63 892.32 784.62 896.39 784.88 903.49 776.57 905.31 776.57 905.31 769.11 906.53 766.86 906.96 766.78 906.96 766.78 907.13 766.86 907.13 769.98 907.57 782.98 910.25 780.21 916.58 778.47 920.74 759.32 921.78 758.54 921.78 758.11 922.12 747.71 928.88 733.94 928.88 731.77 928.88 728.65 928.62 726.83 928.27 726.83 928.27 726.83 928.27 726.74 928.27 726.4 928.45 723.54 930.61 718.51 934.6 716.35 936.25 710.45 941.01 708.55 942.57 708.46 942.57 708.46 942.57 708.46 942.57 707.59 940.67 692.26 913.37 691.91 912.76L690.61 880.53Z" fill="#a56250" opacity="1" stroke-width="4" stroke="none"></path><path d="M540.2 705.33L568.01 676.56C580.66 661.31 601.55 646.23 629.36 640.6 652.93 634.62 667.83 648.31 673.72 656.37 679.44 664.26 684.12 695.28 684.29 696.23 684.03 696.84 677.19 710.96 673.72 717.72V717.81C678.14 722.92 678.49 730.02 667.57 729.16 667.57 729.16 667.48 729.16 667.48 729.24 658.13 756.1 638.63 760.61 620.43 746.57H620.35C619.91 747.09 616.8 750.91 614.46 753.76 614.11 754.11 613.85 754.54 613.59 754.8 612.64 755.93 611.94 756.8 611.77 757.06H611.68L540.28 705.41C540.11 705.41 540.11 705.41 540.2 705.33Z" fill="#a56250" opacity="1" stroke-width="4" stroke="none"></path><path d="M621.91 981.3C609.6 981.3 591.75 975.41 577.02 947.42 568.71 931.65 564.98 915.62 564.55 913.72 564.55 913.63 564.46 913.63 564.37 913.72L545.48 940.49H545.4L428.85 925.76C428.77 925.76 428.77 925.68 428.77 925.68 430.76 919.7 439.17 892.66 448.35 862.51 459.1 827.24 470.88 787.82 474.61 773.35 475.56 772.31 538.12 707.58 540.02 705.59H540.11C542.28 707.06 610.9 752.81 613.5 754.8 613.5 754.8 613.59 754.89 613.5 754.89 612.81 755.84 607.7 763.3 607.09 764.16 607.09 764.25 607.09 764.25 607.09 764.25 618.18 768.75 640.45 785.39 642.62 805.06 646.78 831.83 648.6 894.48 648.68 897.77 648.68 897.86 648.77 897.86 648.77 897.86 649.72 897.43 655.96 894.57 664.89 890.76 672.08 887.72 681 884 690.36 880.44 690.45 880.44 690.45 880.44 690.45 880.53L708.21 942.66V942.74C665.15 973.94 640.71 980.26 621.91 981.3Z" fill="#3c2c5b" opacity="1" stroke-width="4" stroke="none"></path><path d="M699.02 655.33C694.69 654.29 689.67 654.29 684.21 655.59H684.12C679.7 646.93 663.15 631.42 641.58 629.68 644.96 627.08 647.73 623.1 649.81 617.99 650.16 617.21 650.5 616.34 650.76 615.47 658.73 592.43 642.96 550.49 618.62 554.65 602.59 558.63 597.91 578.65 601.29 597.54 603.97 612.61 611.86 626.91 623.21 631.68 600.33 638.78 580.32 661.14 570.09 673.7 569.23 674.65 568.53 675.61 567.93 676.39H567.84C566.37 675.35 540.2 656.46 509 656.54 505.19 656.54 501.47 656.8 497.83 657.24 469.32 661.22 449.65 680.37 444.71 697.18 438.73 713.21 440.29 728.29 440.38 729.42 440.38 729.42 440.38 729.5 440.29 729.5 439.43 729.76 429.81 732.62 420.19 741.2 411.79 748.57 406.5 757.4 403.29 766.24 400.09 775.08 398.87 783.92 398.7 791.2 396.28 829.76 427.12 855.75 448.52 862.34 448.61 862.34 448.61 862.34 448.61 862.25 449.04 861.21 453.98 848.56 458.75 836.95 461.09 831.31 463.34 825.86 464.9 822.22L464.99 822.13C501.12 826.9 532.31 814.33 549.38 796.92 562.21 784.18 570.53 765.12 572.17 754.28 572.17 754.28 572.17 754.2 572.26 754.2 611.34 747.27 612.12 707.15 611.68 705.5 606.92 700.39 603.54 688.95 605.7 680.72 607.35 672.31 614.02 665.99 622.17 666.16 635.42 665.9 643.31 682.45 642.18 691.38V691.46C642.88 691.98 662.98 698.48 679.36 698.57 693.13 698.57 714.88 691.64 714.71 673.7 714.02 664.17 708.04 657.41 699.02 655.33Z" fill="#df85af" opacity="1" stroke-width="4" stroke="none"></path><path d="M630.91 633.41C616.61 633.41 604.74 617.38 601.28 597.88 601.28 597.8 601.36 597.71 601.45 597.8 604.83 601.52 608.38 604.99 612.54 607.68 624.5 615.3 637.93 618.94 650.67 615.47 650.75 615.47 650.75 615.56 650.75 615.56 646.85 626.13 640.44 633.41 630.91 633.41Z" fill="#6f6d6e" opacity="0.3" stroke-width="4" stroke="none"></path><path d="M443.76 812.43C451.38 818.32 460.57 821.18 464.64 822.22 464.73 822.22 464.73 822.3 464.73 822.3 462.73 826.9 461.35 830.19 458.58 836.95 458.58 837.03 458.49 837.03 458.4 837.03 448.7 830.79 443.93 814.51 443.59 812.51 443.59 812.43 443.67 812.43 443.76 812.43Z" fill="#6f6d6e" opacity="0.3" stroke-width="4" stroke="none"></path><path d="M424.52 1032.86C416.81 1013.19 417.24 990.05 419.24 969.95 419.24 969.87 419.32 969.87 419.32 969.87 421.23 970.13 456.06 974.89 457.97 975.15 458.06 975.15 458.06 975.24 458.06 975.24L451.3 1009.55C446.88 1035.55 424.7 1032.86 424.7 1032.86H424.52Z" fill="#d81f00" opacity="1" stroke-width="4" stroke="none"></path><path d="M518.97 977.75C523.82 955.4 517.58 937.98 517.15 936.94V936.85C548 906.79 555.02 868.05 555.97 861.9 555.97 861.82 556.14 861.82 556.14 861.9 557.27 882.96 564.2 912.33 564.46 913.54V913.63L519.14 977.84C519.06 977.92 518.97 977.84 518.97 977.75Z" fill="#050505" opacity="0.3" stroke-width="4" stroke="none"></path><path d="M545.39 940.49C532.65 957.91 519.05 977.84 519.05 977.84" stroke="#381b16" stroke-width="4" stroke-linecap="round" stroke-linejoin="round" opacity="1" fill="none"></path><path d="M620.43 683.06L624.76 694.32" stroke="#000000" stroke-width="4" stroke-linecap="round" stroke-linejoin="round" opacity="1" fill="none"></path><path d="M658.13 728.72C655.35 727.08 652.15 726.9 649.12 727.77" stroke="#000000" stroke-width="4" stroke-linecap="round" stroke-linejoin="round" opacity="1" fill="none"></path><path d="M663.85 707.58C667.48 707.67 667.48 713.04 663.85 713.13 660.21 713.04 660.21 707.67 663.85 707.58Z" fill="#231f20" opacity="1" stroke-width="4" stroke="none"></path><path d="M614.72 768.23C610.38 765.55 607.18 764.16 607.18 764.16" stroke="#050505" stroke-width="4" stroke-linecap="round" stroke-linejoin="round" opacity="1" fill="none"></path><path d="M783.59 878.54C771.38 878.54 756.73 880.36 756.73 880.36" stroke="#000000" stroke-width="4" stroke-linecap="round" stroke-linejoin="round" opacity="1" fill="none"></path><path d="M782.64 892.32C774.84 892.32 758.47 893.96 758.47 893.96" stroke="#000000" stroke-width="4" stroke-linecap="round" stroke-linejoin="round" opacity="1" fill="none"></path><path d="M766.78 907.05C763.83 907.13 761.49 907.48 758.63 908.09" stroke="#000000" stroke-width="4" stroke-linecap="round" stroke-linejoin="round" opacity="1" fill="none"></path><path d="M648.86 897.86L649.12 918.92" stroke="#050505" stroke-width="4" stroke-linecap="round" stroke-linejoin="round" opacity="1" fill="none"></path><path d="M464.64 822.3C453.46 819.27 443.76 812.51 443.76 812.51" stroke="#000000" stroke-width="4" stroke-linecap="round" stroke-linejoin="round" opacity="1" fill="none"></path><path d="M648.86 897.95C649.46 897.6 655.96 894.74 664.8 890.93 664.89 890.93 664.97 891.02 664.89 891.02L649.29 919C649.29 919.09 649.12 919.09 649.12 919L648.86 897.95C648.77 897.95 648.77 897.95 648.86 897.95Z" fill="#050505" opacity="0.3" stroke-width="4" stroke="none"></path><path d="M610.3 735.74C613.16 740.85 619.74 745.88 620.43 746.4V746.49L614.63 753.59C614.54 753.68 614.46 753.59 614.46 753.59L610.12 735.83C610.12 735.74 610.21 735.65 610.3 735.74Z" fill="#000000" opacity="0.3" stroke-width="4" stroke="none"></path><path d="M403.21 766.16C414.04 737.47 438.39 730.2 440.12 729.68 440.21 729.68 440.21 729.68 440.21 729.76 440.38 731.24 443.41 749.61 453.64 759.92 453.72 760 453.64 760.09 453.55 760.09 429.81 754.2 405.63 765.12 403.29 766.24 403.29 766.33 403.21 766.24 403.21 766.16Z" fill="#6f6d6e" opacity="0.3" stroke-width="4" stroke="none"></path><path d="M544.87 703.77C534.47 667.03 502.58 658.45 498.17 657.41 498.08 657.41 498.08 657.24 498.17 657.24 533.34 652.3 565.75 674.74 567.66 676.47V676.56C566.53 677.86 546.6 701.86 545.04 703.77 545.04 703.85 544.96 703.85 544.87 703.77Z" fill="#6f6d6e" opacity="0.3" stroke-width="4" stroke="none"></path><path d="M684.11 655.68C684.11 655.59 684.11 655.59 684.2 655.59 690.18 654.21 694.77 654.38 698.93 655.33 699.02 655.33 699.02 655.42 699.02 655.42 697.28 664.78 692.6 673.01 691.13 675.43 690.96 675.69 690.52 675.69 690.44 675.35 689.66 672.31 686.71 661.4 684.11 655.68Z" fill="#6f6d6e" opacity="0.3" stroke-width="4" stroke="none"></path><path d="M620.52 746.57C612.81 740.51 610.12 735.74 610.12 735.74" stroke="#000000" stroke-width="4" stroke-linecap="round" stroke-linejoin="round" opacity="1" fill="none"></path><path d="M564.55 913.54C558.65 888.76 558.05 879.58 556.23 861.9" stroke="#050505" stroke-width="4" stroke-linecap="round" stroke-linejoin="round" opacity="1" fill="none"></path><path d="M567.66 676.65L559.95 686.01" stroke="#000000" stroke-width="4" stroke-linecap="round" stroke-linejoin="round" opacity="1" fill="none"></path><path d="M440.2 729.76C442.88 746.14 448.08 751.77 453.63 759.92" stroke="#000000" stroke-width="4" stroke-linecap="round" stroke-linejoin="round" opacity="1" fill="none"></path><path d="M684.11 655.68C686.11 660.7 688.1 665.82 690.44 675.35" stroke="#000000" stroke-width="4" stroke-linecap="round" stroke-linejoin="round" opacity="1" fill="none"></path></g></svg>